<svg width="210" height="184" viewBox="0 0 210 184" fill="none" xmlns="http://www.w3.org/2000/svg">
<path d="M95.7 123.288C95.7666 122.355 96.8334 107.488 98.9 78.6882C86.5 62.0882 108.2 43.7882 127.6 48.2882C139.5 51.0882 147.2 62.1882 144.7 73.3882L167.3 126.288L95.7 123.288Z" fill="#2E3238"/>
<path d="M137 81.9882C136 84.5882 133.1 85.8882 130.6 84.9882C128 83.9882 126.6 81.1882 127.6 78.5882C128.5 75.9882 131.4 74.6882 134 75.5882C136.6 76.5882 137.9 79.3882 137 81.9882Z" fill="#F6B399"/>
<path d="M132.9 79.4882C130 87.4882 121.1 91.5882 113 88.6882C105 85.6882 101.5 77.4882 104.4 69.4882C104.9 68.1882 104.8 66.3882 105.6 65.3882C107.8 62.5882 110.6 60.3882 113.7 58.8882C115.4 62.2882 117.5 65.4882 119.9 68.3882C123.5 72.7882 128.1 76.3882 133.1 78.8882C133.033 79.0882 132.967 79.2882 132.9 79.4882Z" fill="#F6B399"/>
<path d="M128.6 101.288H118L116.2 91.4882L115.9 89.5882L115.8 88.6882L125.6 83.3882L128.6 101.288Z" fill="#F6B399"/>
<path d="M104.4 24.4882C100.067 28.8216 95.6333 33.0215 91.1 37.0882C91.8333 37.2882 92.5666 37.4216 93.2999 37.4882C94.6999 37.5882 96.2 37.5882 97.6 37.4882C100.2 37.3882 101.6 37.1882 103.9 38.6882C104.9 39.3882 106 40.6882 105.9 41.9882C105.8 43.1882 106.4 43.8882 105.3 44.2882C104.1 44.7882 102.8 44.9882 101.5 45.1882C100.033 45.5216 98.5666 45.8549 97.1 46.1882C94.3 46.9216 91.5 47.7215 88.7 48.5882C83.4333 50.1882 78.2666 52.1215 73.2 54.3882L64.6 69.6882L39.7 55.8882C41.7 52.7548 44.1666 48.8215 47.1 44.0882C48.9666 37.2215 50.7667 32.4549 52.5 29.7882C57 22.8882 62.9 21.0882 65.7 17.1882C66.4333 14.2549 67.2 11.3215 68 8.38818C68.4 6.88818 68.8 5.28821 69.4 3.78821C69.8 2.48821 70.4999 1.18822 71.7999 0.488219C72.9999 -0.111781 74.5999 -0.211781 75.7999 0.488219C77.0999 1.18822 77.2999 2.68822 77.2 3.98822C76.9 7.08822 76.1999 10.2882 75.7999 13.3882C76.7333 11.5882 77.7 9.82153 78.7 8.08819C79.7 6.28819 80.7 4.48819 82.2 3.08819C83.4 1.78819 85.1 0.988207 86.9 1.28821C88.3 1.38821 89.5 2.08823 90.2 3.18823C90.3333 3.12156 90.5 3.05489 90.7 2.98822C92 2.58822 93.6999 2.68819 94.7999 3.58819C96.0999 4.48819 96.4 6.08819 96.1 7.58819C95.7 9.28819 94.7 10.8882 93.9 12.3882C93.0334 14.1215 92.1333 15.8549 91.2 17.5882C89.7999 20.3882 88.4 23.1548 87 25.8882C88.4 26.2882 90.2 24.4882 91 23.8882C93 22.3548 95 20.8215 97 19.2882C98.6 18.0882 100.2 16.6882 101.9 15.7882C103.5 14.9882 105.3 14.7882 106.9 15.6882C108.4 16.5882 109 18.3882 108.3 19.9882C107.9 20.8882 107.3 21.5882 106.7 22.1882C105.9 22.9882 105.133 23.7549 104.4 24.4882Z" fill="#F6B399"/>
<path d="M111.1 71.8882C111.873 71.8882 112.5 71.2615 112.5 70.4883C112.5 69.7151 111.873 69.0883 111.1 69.0883C110.327 69.0883 109.7 69.7151 109.7 70.4883C109.7 71.2615 110.327 71.8882 111.1 71.8882Z" fill="#2E3238"/>
<path d="M123.1 73.2881C123.873 73.2881 124.5 72.6613 124.5 71.8881C124.5 71.1149 123.873 70.4882 123.1 70.4882C122.327 70.4882 121.7 71.1149 121.7 71.8881C121.7 72.6613 122.327 73.2881 123.1 73.2881Z" fill="#2E3238"/>
<path d="M114.9 71.3882C114.6 72.2882 114 72.7882 113.2 73.3882C113 73.5882 112.7 73.7883 112.6 74.1883C113.7 74.2883 113.6 76.0883 112.4 75.9883C111.4 75.9883 110.6 74.9882 110.7 73.8882C110.9 72.7882 111.7 72.1883 112.5 71.5883C114.1 70.2883 113.3 68.1883 112.8 66.5883C112.7 66.0883 113.1 65.5883 113.5 65.4883C114.1 65.3883 114.5 65.6883 114.7 66.1883C115.2 67.8883 115.7 69.6882 114.9 71.3882Z" fill="#EE796A"/>
<path d="M112.9 66.4883C112 67.2883 110.9 66.5883 109.3 66.2883C109.1 66.2883 108.8 66.2883 108 66.3883C107.733 66.3883 107.5 66.4216 107.3 66.4883C107 66.5883 106.7 66.4883 106.5 66.3883C106.367 66.3216 106.233 66.2216 106.1 66.0883C105.8 65.7883 105.8 65.0883 106.2 64.7883C106.9 64.0883 107.9 63.5883 108.9 63.4883C109.8 63.3883 110.7 63.3883 111.6 63.7883C112 63.9883 112.5 64.1883 112.9 64.5883C113.4 65.0883 113.5 65.9883 112.9 66.4883Z" fill="#2E3238"/>
<path d="M122.9 69.3882C122.6 69.3882 122.4 69.2882 121.8 69.1882C121.067 69.0549 120.3 68.9549 119.5 68.8882C118.9 68.8882 118.4 68.2882 118.7 67.6882C119 66.9882 119.6 66.3882 120.4 66.1882C121 66.1882 123.3 66.8882 124.5 67.5882C126.7 68.9882 124.2 69.6882 122.9 69.3882Z" fill="#2E3238"/>
<path d="M118.9 77.6881C117.5 78.9881 115.5 79.7881 113.5 79.4881C113 79.4881 112.6 79.0881 112.6 78.5881C112.6 78.0881 113.1 77.5881 113.6 77.6881C113.8 77.6881 114 77.6881 114.7 77.6881C115.1 77.5881 115.5 77.4881 116.3 77.1881C116.5 77.1881 116.7 76.9881 117.2 76.6881C117.333 76.5548 117.5 76.4215 117.7 76.2881C118 75.8881 118.6 75.9881 119 76.2881C119.3 76.6881 119.3 77.2881 118.9 77.6881Z" fill="#EE796A"/>
<path d="M134.2 80.5882L129.8 81.2882C129.3 81.3882 128.8 81.0882 128.7 80.5882C128.6 80.0882 128.9 79.4882 129.4 79.3882L133.8 78.6882C134.3 78.6882 134.8 78.8882 134.9 79.4882C135 79.8882 134.7 80.4882 134.2 80.5882Z" fill="#EE796A"/>
<path d="M124.6 89.5882C122 90.8882 119.1 91.5882 116.2 91.4882L115.9 89.5882C118.6 89.6882 121.3 89.1882 123.7 87.8882C124.8 87.3882 125.7 88.9882 124.6 89.5882Z" fill="#EE796A"/>
<path d="M203 164.388C203 172.488 197.4 179.288 189.9 181.388C189.1 181.655 188.233 181.888 187.3 182.088C184.2 182.788 180.9 182.988 177.6 182.888C174.3 182.788 171 182.288 167.7 181.488C165.2 180.888 162.5 179.988 160.7 177.888C140.2 177.788 100.1 177.688 99.4 177.888C98.8 178.188 88.0999 156.088 81.7999 142.988C81.4666 142.322 81.1667 141.688 80.9 141.088C79.4 141.288 78 141.388 76.6 141.488C72.9333 141.755 69.2666 142.022 65.6 142.288C65.4 142.288 65.2 142.322 65 142.388C63.9333 142.455 62.8666 142.522 61.7999 142.588C55.1333 142.988 48.4333 143.322 41.7 143.588C33.9 143.855 26.1334 143.955 18.4 143.888C18 143.788 17.8 143.688 17.7 143.488C7.79995 142.688 0 134.388 0 124.288C0 121.888 0.399951 119.688 1.19995 117.588C1.09995 116.988 1.29998 116.688 1.59998 116.288C2.86664 112.022 4.39995 107.822 6.19995 103.688C9.89995 94.9882 14.6 86.7882 20.2 79.1882C25.1 72.4882 30.5999 66.1882 36.7999 60.5882C37.7999 58.9882 38.7666 57.4215 39.7 55.8882L64.6 69.6882L46 102.788L45.1 104.388C45.3666 104.322 45.5999 104.255 45.7999 104.188C46.3999 104.122 46.9667 104.022 47.5 103.888C49.3667 103.488 51.2 103.088 53 102.688C54.2667 102.422 55.5 102.155 56.7 101.888C60.9 100.955 65.0999 100.055 69.2999 99.1882C75.0999 97.8882 80.7999 96.8882 86.7999 96.6882C93.6999 96.5882 100.6 97.1882 107.6 97.5882C118.733 98.2549 129.9 98.8882 141.1 99.4882C150.5 100.088 160.7 97.7882 168.6 103.788C175.5 108.888 183.9 122.688 190.6 135.088C190.933 135.755 191.267 136.422 191.6 137.088C197.6 148.488 202 158.188 201.9 158.288C202.6 160.188 203 162.188 203 164.388Z" fill="#00ADB5"/>
<path d="M191.6 137.088C190.333 139.421 189.067 141.755 187.8 144.088C187.5 144.588 186.7 144.588 186.3 144.188C183.567 141.188 180.833 138.155 178.1 135.088C176.767 139.888 175.467 144.655 174.2 149.388C174 150.088 173 150.188 172.6 149.688C169.667 146.288 166.7 142.888 163.7 139.488C162.3 141.422 161.1 143.488 160.1 145.688C159.767 146.422 159.467 147.188 159.2 147.988C158.8 147.255 158.433 146.488 158.1 145.688C158.367 144.955 158.667 144.255 159 143.588C160.067 141.388 161.367 139.355 162.9 137.488C163.3 136.988 163.9 136.888 164.4 137.388C167.2 140.588 170 143.855 172.8 147.188C174.133 142.455 175.433 137.722 176.7 132.988C176.9 132.288 177.9 132.088 178.3 132.588C181.167 135.721 184 138.855 186.8 141.988C188.067 139.722 189.333 137.421 190.6 135.088C190.933 135.755 191.267 136.421 191.6 137.088Z" fill="white"/>
<path d="M47.1 44.0883C49.1666 47.4216 52.5666 50.455 57.2999 53.1883C61.5666 55.655 66.2333 57.1883 71.2999 57.7883L62.7999 72.7883C58.0666 72.8549 53.1333 71.2549 48 67.9883C42.8667 64.7216 39.7 61.3216 38.5 57.7883L47.1 44.0883Z" fill="white"/>
<path d="M116.6 93.4882L127.3 92.3882L130.4 98.8882L126.8 116.188L118.8 104.288L105.5 114.288L114.6 97.8882L116.6 93.4882Z" fill="white"/>
<path d="M69.7999 134.288C66.1333 135.955 62.5 137.622 58.9 139.288C61.1667 140.155 63.4 141.155 65.6 142.288C65.4 142.288 65.2 142.322 65 142.388C63.9333 142.455 62.8666 142.522 61.7999 142.588C59.9333 141.722 58.0666 140.955 56.2 140.288C55.4 139.988 55.3 138.888 56 138.588C59.8667 136.788 63.7666 134.988 67.7 133.188C64.5 130.388 61 128.188 57.2 126.588C56.4 126.288 56.3 125.288 57 124.888C60.6 122.955 64.0333 120.755 67.2999 118.288C63.4999 116.388 59.6 114.988 55.5 113.988C54.8 113.788 54.7 112.888 55.1 112.388C57.8333 110.055 60.7333 107.955 63.7999 106.088C60.1999 104.955 56.6 103.822 53 102.688C54.2667 102.422 55.5 102.155 56.7 101.888C59.9 102.888 63.0999 103.922 66.2999 104.988C67.0999 105.188 67.2 106.288 66.5 106.688C63.3667 108.422 60.4333 110.422 57.7 112.688C61.8 113.788 65.8 115.388 69.5 117.388C70 117.588 70.1 118.488 69.6 118.888C66.4 121.355 63.0333 123.588 59.5 125.588C63.4 127.488 66.9 129.888 70 132.788C70.4 133.188 70.2999 133.988 69.7999 134.288Z" fill="white"/>
<path d="M47.5 103.888C43.9667 109.755 40.6667 115.722 37.6 121.788C37.4 122.288 36.6999 122.288 36.2999 122.088C35.8999 121.788 35.8 121.188 36.1 120.788C39.1667 114.655 42.4667 108.655 46 102.788L45.1 104.388C45.3667 104.322 45.5999 104.255 45.7999 104.188C46.3999 104.122 46.9667 104.022 47.5 103.888Z" fill="#2E3238"/>
<path d="M170.3 169.588C168.767 166.588 167.233 163.621 165.7 160.688C163.567 156.421 161.4 152.188 159.2 147.988C158.8 147.255 158.433 146.488 158.1 145.688C157.367 144.288 156.633 142.888 155.9 141.488C154.633 139.088 153.4 136.721 152.2 134.388C151.333 132.588 150.433 130.788 149.5 128.988C148.9 127.888 150.5 126.988 151.1 128.088C152.633 131.021 154.133 133.988 155.6 136.988C156.2 138.121 156.8 139.288 157.4 140.488C157.933 141.488 158.467 142.521 159 143.588C159.333 144.188 159.667 144.821 160 145.488C164 153.288 168 160.988 171.9 168.588C172.4 169.688 170.8 170.588 170.3 169.588Z" fill="#2E3238"/>
<path d="M93.9001 119.588C91.3001 121.888 89 124.588 87.2 127.588C84.1 132.788 82.4 138.988 82.6 145.088C82.7 151.488 84.8 157.988 88.5 163.188C88.7 163.588 88.8001 164.188 88.4001 164.588C88.0001 164.888 87.4 164.888 87.1 164.488C84.8 161.288 83.2 157.788 82.1 154.088C80.2 147.688 80.2 140.688 82.2 134.288C84.1 128.088 87.7 122.488 92.6 118.288C93.5 117.488 94.8001 118.788 93.9001 119.588Z" fill="white"/>
<path d="M94.2999 119.388C94.2999 119.588 94.1 119.788 93.9 119.888C93.7 120.088 93.4 120.088 93.1 119.988C93 119.888 92.7 119.688 92.6 119.488C92.1333 118.222 91.6666 116.922 91.2 115.588C91.1 115.388 91.1 115.188 91.1 114.888C91.2 114.688 91.4 114.488 91.6 114.388C91.8 114.288 92.0999 114.288 92.2999 114.288C92.4999 114.388 92.7999 114.588 92.7999 114.788C93.3333 116.055 93.8333 117.355 94.2999 118.688C94.3999 118.888 94.3999 119.088 94.2999 119.388Z" fill="white"/>
<path d="M107.2 42.9883C107.1 44.1883 105.2 44.0883 105.4 42.8883C105.8 40.1883 102.7 38.8883 100.5 38.7883C99.1001 38.6883 97.7 38.8883 96.3 38.9883C94.7666 39.055 93.2666 38.955 91.8 38.6883C89 38.1883 86.2001 37.1883 83.5001 36.3883C79.0001 35.1883 72.8001 34.4883 70.0001 39.1883C69.4001 40.1883 67.8001 39.1883 68.5001 38.0883C70.0001 35.5883 72.7 34.1883 75.6 33.7883C82 32.7883 87.7001 36.6883 93.9001 37.0883C97.0001 37.2883 100.2 36.2883 103.2 37.3883C105.5 38.1883 107.6 40.3883 107.2 42.9883Z" fill="#EE796A"/>
<path d="M107.8 17.1882C106.8 15.8882 105.1 15.5882 103.6 15.9882C101.9 16.3882 100.4 17.4882 99.1 18.5882C97.4333 19.7882 95.8 21.0215 94.2 22.2882C92.6 23.4882 90.9666 24.6882 89.2999 25.8882C88.8999 26.2215 88.5 26.5548 88.1 26.8882C87.8 27.0882 87.5 27.2882 87.1 27.2882C86.3 27.2882 85.7 26.8882 85.5 26.0882C85.3 25.1882 86.5 24.6882 87.1 25.2882C87.2333 25.1548 87.3667 25.0549 87.5 24.9882C87.9667 24.6549 88.4334 24.2882 88.9 23.8882C89.7667 23.2215 90.6666 22.5548 91.6 21.8882C93.1333 20.6882 94.6999 19.5215 96.2999 18.3882C97.6999 17.2882 99.1 16.0882 100.7 15.1882C103.3 13.6882 107.1 13.1882 109.1 15.8882C109.9 16.8882 108.5 18.0882 107.8 17.1882Z" fill="#EE796A"/>
<path d="M91.1999 4.08814C86.2999 9.38814 82.3 15.5882 79.4 22.1882C79.2 22.6882 78.6999 22.9882 78.1999 22.7882C77.7999 22.6882 77.4 22.0881 77.6 21.5881C80.6 14.6881 84.8 8.28818 89.9 2.68818C90.7 1.78818 91.9999 3.18814 91.1999 4.08814Z" fill="#EE796A"/>
<path d="M88.9001 3.48831C88.3001 2.28831 86.8001 1.88828 85.5001 2.08828C82.3001 2.48828 80.6 6.08828 79.1 8.58828L72.6 19.1883C72 20.1883 70.4 19.1883 71.1 18.0883C72.4334 15.8883 73.8 13.6549 75.2 11.3883C76.3333 9.5216 77.5 7.62165 78.7 5.68832C79.6 4.18832 80.7 2.58831 82.2 1.48831C83.5 0.588307 85.1 -0.0116805 86.8 0.18832C88.3 0.38832 89.8001 1.18828 90.5001 2.58828C91.1001 3.68828 89.4001 4.58831 88.9001 3.48831Z" fill="#EE796A"/>
<path d="M166 179.688C161.4 179.788 157.8 176.388 154.8 173.388C153.3 171.788 151.6 170.288 150.2 168.588C149.3 167.588 148.6 166.488 148.2 165.288C147.4 165.088 147.1 164.488 147.3 164.088C148 161.788 149.1 159.588 150.6 157.688C149.933 157.355 149.233 156.988 148.5 156.588C148 156.388 148 155.688 148.2 155.288C148.5 154.888 149.1 154.788 149.5 154.988C154.3 157.488 157.8 157.988 162.3 160.788C164.2 162.088 164.1 161.788 165.8 163.288C167.5 164.688 172.3 169.788 172.8 171.988C173.6 176.188 170 179.488 166 179.688Z" fill="#F6B399"/>
<path d="M167.4 165.788C168.4 169.888 164.1 171.588 160.8 169.988C160.1 169.688 159.4 169.288 158.7 169.988C158 170.688 157.9 171.788 157.6 172.688C157 174.288 155.9 175.988 154.1 176.288C152.5 176.588 151 175.688 150.3 174.288C149.2 175.188 147.7 175.588 146.3 175.088C145.3 174.788 144.6 174.088 144.1 173.288C143.4 173.988 142.4 174.388 141.3 174.288C139.8 174.088 138.6 172.888 137.9 171.588C136.7 168.988 136.7 165.888 137.6 163.188C138.2 161.288 139.3 159.688 140.8 158.388C139.7 158.288 138.7 158.388 137.7 158.788C136.7 159.288 135.9 159.988 135 160.688C134.2 161.488 133.2 162.188 132.1 162.188C130.9 162.288 129.9 161.688 129.2 160.788C127.6 158.688 128.6 155.988 130.3 154.288C131.9 152.588 134.2 151.688 136.4 151.288C141 150.588 145.7 151.888 149.6 154.188C150.067 154.455 150.5 154.755 150.9 155.088C155.3 155.588 158.6 158.688 162.3 160.788C163.8 161.688 165.7 162.788 166.7 164.288C167.033 164.755 167.267 165.255 167.4 165.788Z" fill="#F6B399"/>
<path d="M161.5 168.488C161.1 168.688 160.6 168.588 160 168.488C159.8 168.755 159.6 169.055 159.4 169.388C159.1 169.888 158.8 170.488 158.6 171.088C158.1 172.388 157.7 173.688 156.9 174.788C155.6 176.688 153.1 177.788 151 176.288C150.533 175.955 150.167 175.588 149.9 175.188C148.8 175.988 147.2 176.088 145.9 175.488C141.8 173.488 142.6 167.888 143.3 164.288C144.1 160.388 146.3 156.388 150.2 154.788C151.3 154.288 152.1 155.988 151 156.488C149.4 157.188 148.1 158.288 147.1 159.788C146.1 161.188 145.5 162.888 145.2 164.588C144.8 166.288 144.5 168.088 144.6 169.888C144.7 171.288 145.2 172.988 146.5 173.688C147.4 174.188 148.5 174.088 149.2 173.288C148.9 172.188 149 170.988 149.2 169.888C149.8 165.688 151.1 160.988 154.7 158.288C155.6 157.588 156.9 158.988 155.9 159.688C154.1 160.988 153 162.988 152.3 164.988C151.5 166.988 151 169.288 150.9 171.388C150.833 171.855 150.833 172.321 150.9 172.788C151.1 172.988 151.167 173.222 151.1 173.488C151.233 173.755 151.367 173.988 151.5 174.188C152.1 174.988 152.9 175.288 153.8 174.988C155.9 174.288 156.4 171.588 157.1 169.788C157.6 168.788 158.1 167.588 159 166.888C160 166.188 161.2 166.188 161.9 167.288C162.2 167.688 161.9 168.288 161.5 168.488Z" fill="#EE796A"/>
<path d="M146.5 155.088C143.8 155.888 141.4 157.688 139.7 159.988C137.9 162.588 137.1 165.688 137.3 168.888C137.4 169.388 136.8 169.788 136.4 169.688C135.8 169.688 135.5 169.288 135.5 168.788C135.2 165.488 136.1 162.088 137.7 159.388C137.3 159.388 137 159.488 136.4 159.688C136.2 159.755 136 159.822 135.8 159.888C135.4 160.088 134.8 159.888 134.6 159.488C134.3 159.088 134.5 158.488 135 158.188C136.1 157.688 137.4 157.388 138.6 157.488C138.8 157.488 139 157.555 139.2 157.688C141 155.588 143.4 154.088 146.1 153.288C147.3 152.888 147.7 154.688 146.5 155.088Z" fill="#EE796A"/>
<path d="M158.9 176.988C163.1 179.055 166.5 179.388 169.1 177.988C173 175.888 170.9 168.888 169 166.688C167.2 164.688 165.733 163.222 164.6 162.288L172.5 164.388C179.367 168.455 181.433 172.922 178.7 177.788C176.3 182.188 168.6 181.688 165 180.488C162.6 179.688 160.567 178.522 158.9 176.988Z" fill="white"/>
<path d="M165 180.088C165 181.988 163.4 183.588 161.5 183.588H79.9C78 183.588 76.5 181.988 76.5 180.088C76.5 178.188 78 176.588 79.9 176.588H161.5C163.4 176.588 165 178.188 165 180.088Z" fill="#2E3238"/>
<path d="M140.9 179.988C140.7 180.055 140.5 180.088 140.3 180.088L138.3 179.988C138.033 180.055 137.733 180.088 137.4 180.088H79C75.7 180.088 72.1 177.388 70.9 174.088L56.5 134.488C55.9 133.088 56 131.788 56.5 130.688C57.2 128.288 60.2999 126.288 62.7999 126.288H121.2C124.5 126.288 128.1 128.888 129.3 132.188L143.7 171.788C144.9 174.888 143.7 179.488 140.9 179.988Z" fill="#FDC435"/>
<path d="M140.9 179.988C140.7 180.055 140.5 180.088 140.3 180.088L138.3 179.988C138.033 180.055 137.733 180.088 137.4 180.088H79C75.7 180.088 72.1 177.388 70.9 174.088L56.5 134.488C55.9 133.088 56 131.788 56.5 130.688C57.5 130.088 58.7 129.688 59.7 129.688H118.2C121.5 129.688 125.1 132.388 126.3 135.688L140.7 175.288C141.2 176.688 141.3 178.488 140.9 179.988Z" fill="#2E3238"/>
<path d="M101 155.388C102 157.888 100.7 159.988 98.1999 159.988C95.6999 159.988 92.9 157.888 92 155.388C91.1 152.888 92.4 150.888 94.9 150.888C97.4 150.888 100.1 152.888 101 155.388Z" fill="white"/>
<path d="M210 62.2882C210 70.3882 203.5 76.9882 195.4 76.9882H174.3L163.2 85.0882L166.6 76.8882C159.1 76.1882 153.3 69.8882 153.3 62.2882C153.3 54.1882 159.9 47.6882 167.9 47.6882H195.4C203.5 47.6882 210 54.1882 210 62.2882Z" fill="#FDC435"/>
<path d="M167.6 65.2882C169.367 65.2882 170.8 63.8555 170.8 62.0882C170.8 60.3209 169.367 58.8882 167.6 58.8882C165.833 58.8882 164.4 60.3209 164.4 62.0882C164.4 63.8555 165.833 65.2882 167.6 65.2882Z" fill="white"/>
<path d="M182 65.2882C183.767 65.2882 185.2 63.8555 185.2 62.0882C185.2 60.3209 183.767 58.8882 182 58.8882C180.233 58.8882 178.8 60.3209 178.8 62.0882C178.8 63.8555 180.233 65.2882 182 65.2882Z" fill="white"/>
<path d="M195.7 65.2882C197.467 65.2882 198.9 63.8555 198.9 62.0882C198.9 60.3209 197.467 58.8882 195.7 58.8882C193.933 58.8882 192.5 60.3209 192.5 62.0882C192.5 63.8555 193.933 65.2882 195.7 65.2882Z" fill="white"/>
<path fill-rule="evenodd" clip-rule="evenodd" d="M191.4 98.4882C191.4 99.1882 191.1 99.9882 190.7 100.588C189.8 101.788 188.3 102.488 186.8 102.388C186.1 102.388 185.3 102.088 184.7 101.688C184.3 101.388 184.1 100.988 183.9 100.588C183.767 100.188 183.667 99.7882 183.6 99.3882C183.3 97.5882 183.9 95.7883 185.2 94.6883C185.5 94.4883 185.7 94.3882 186 94.4882C187.6 93.9882 189.5 94.6882 190.5 96.0882C191 96.7882 191.3 97.5882 191.4 98.4882ZM188.6 96.7882C188.5 96.6882 188.4 96.5882 186.2 96.3882C186.1 96.4882 186 96.5882 185.7 97.0882C185.6 97.2882 185.6 97.3882 185.4 97.8882C185.4 98.0882 185.4 98.2882 185.4 98.7882C185.4 98.9882 185.4 99.1882 189.5 98.3882C189.5 98.3882 189.5 98.1882 188.6 96.7882Z" fill="#FFBB4D"/>
<path fill-rule="evenodd" clip-rule="evenodd" d="M80.9 80.9882C80.5667 81.5215 80.0667 81.8882 79.4 82.0882C78.9 82.2882 78.3 82.1882 77.7 82.0882C77.3 81.9882 76.8 81.7882 76.4 81.4882C75.9 81.0882 75.4999 80.5882 75.2999 79.9882C75.0999 79.4882 75.6 78.9882 75.9 78.6882C75.7 78.5882 75.5 78.3882 75.5 78.1882C75.4 77.8882 75.5 77.6881 75.6 77.3881C76.2 76.3881 77.5 75.7881 78.7 75.8881C79.9 75.9881 81 76.6882 81.4 77.7882C81.7 78.7882 81.6 80.0882 80.9 80.9882ZM77.1 78.4882C77 78.6882 76.8 78.7882 76.7 78.9882C77 79.0882 77.1 79.2882 79.7 79.1882C79.7 79.0882 79.7 79.0882 77.1 78.4882Z" fill="#FDC435"/>
<path d="M135.4 35.5883V39.7883C135.4 40.3883 134.9 40.6883 134.4 40.6883C133.9 40.6883 133.5 40.1883 133.5 39.6883V35.4883C133.5 34.9883 134 34.5883 134.5 34.5883C135 34.5883 135.4 35.0883 135.4 35.5883Z" fill="#FDC435"/>
<path d="M144.8 38.1881C143.733 39.5881 142.667 40.9881 141.6 42.3881C141.3 42.8881 140.8 42.9881 140.3 42.6881C139.9 42.4881 139.8 41.7881 140.1 41.3881C141.167 39.9881 142.233 38.5881 143.3 37.1881C143.6 36.6881 144.1 36.5881 144.6 36.8881C145 37.0881 145.1 37.7881 144.8 38.1881Z" fill="#FDC435"/>
<path d="M149.8 47.2882C149.8 47.7882 149.3 48.1882 148.8 48.1882H143.5C142.9 48.1882 142.6 47.6882 142.6 47.1882C142.6 46.6882 143.1 46.2882 143.6 46.2882H148.9C149.4 46.2882 149.8 46.7882 149.8 47.2882Z" fill="#FDC435"/>
</svg>
