<svg width="201" height="156" viewBox="0 0 201 156" fill="none" xmlns="http://www.w3.org/2000/svg">
<path d="M199.607 18.5658C193.874 22.4991 188.107 26.4324 182.307 30.3658C186.24 31.4991 190.14 32.6325 194.007 33.7658C194.707 33.9658 194.707 35.1658 193.907 35.2658C191.974 35.4658 190.074 35.6658 188.207 35.8658C191.507 37.3658 194.407 39.4658 196.907 42.1658C197.307 42.6658 196.907 43.4658 196.307 43.4658C194.44 43.4658 192.607 43.4658 190.807 43.4658C185.007 43.6658 179.24 44.3324 173.507 45.4658C173.407 45.8658 173.007 45.9658 172.607 45.9658C172.141 45.8324 171.707 45.7324 171.307 45.6658C170.507 45.5658 170.607 44.3658 171.307 44.1658C173.174 43.8324 175.007 43.5325 176.807 43.2658C182.707 42.3658 188.607 41.9658 194.507 41.8658C191.707 39.2658 188.307 37.2658 184.607 36.1658C183.907 35.9658 183.907 34.7658 184.707 34.6658C186.374 34.5324 188.074 34.3658 189.807 34.1658C186.607 33.2324 183.44 32.2991 180.307 31.3658C179.607 31.1658 179.707 30.2658 180.207 29.9658C185.074 26.6324 189.907 23.2991 194.707 19.9658C194.374 20.0991 194.041 20.1991 193.707 20.2658C186.974 22.1325 180.174 23.5658 173.307 24.5658C172.607 24.6658 172.007 23.9658 172.507 23.3658C174.174 21.0991 175.84 18.7991 177.507 16.4658C173.207 17.3658 169.207 19.0658 165.607 21.5658C165.007 22.0658 164.207 21.5658 164.407 20.7658C166.007 15.2658 167.207 9.56576 167.707 3.86576C164.241 9.26576 160.474 14.4658 156.407 19.4658C156.107 19.9658 155.107 19.9658 155.007 19.1658C154.807 16.7658 153.807 14.3658 152.407 12.3658C153.007 15.8324 153.607 19.2658 154.207 22.6658C154.407 23.6658 152.907 24.0658 152.707 23.0658C151.974 18.6658 151.207 14.2658 150.407 9.86576C150.307 9.06576 151.207 8.66578 151.707 9.16578C154.007 11.3658 155.607 14.1658 156.307 17.2658C160.574 11.8658 164.507 6.23243 168.107 0.365764C168.507 -0.334236 169.607 0.0657881 169.607 0.765788C169.107 7.06579 168.107 13.2658 166.407 19.2658C170.307 16.8658 174.607 15.2658 179.007 14.6658C179.707 14.5658 180.307 15.2658 179.907 15.8658C178.174 18.1991 176.474 20.4991 174.807 22.7658C176.14 22.5658 177.474 22.3658 178.807 22.1658C185.674 20.8991 192.441 19.1991 199.107 17.0658C199.507 16.9658 199.807 17.2658 200.007 17.5658C200.107 17.9658 199.907 18.3658 199.607 18.5658Z" fill="#00ADB5"/>
<path d="M164.107 26.9658V119.766C164.107 124.966 160.807 129.266 156.607 129.266H47.207C43.007 129.266 39.6071 124.966 39.6071 119.766V26.9658C39.6071 21.6658 43.007 17.4658 47.207 17.4658H156.607C160.807 17.4658 164.107 21.6658 164.107 26.9658Z" fill="#F5F5FA"/>
<path d="M164.107 26.9658V32.7658H39.6071V26.9658C39.6071 21.6658 43.007 17.4658 47.207 17.4658H156.607C160.807 17.4658 164.107 21.6658 164.107 26.9658Z" fill="#00ADB5"/>
<path d="M187.207 48.5658V51.6658C186.74 51.9991 186.274 52.3324 185.807 52.6658C182.807 55.1658 180.607 58.3658 177.407 60.6658C176.007 61.7658 174.307 62.4658 172.607 62.7658C170.307 63.0658 168.007 62.4658 165.807 62.0658C163.907 61.7658 161.907 61.6658 160.007 61.9658C158.307 62.3658 156.607 62.9658 155.107 63.8658C153.407 64.7658 151.907 66.0658 150.707 67.5658V48.5658C150.707 44.9658 153.507 42.1658 157.107 42.1658H180.807C184.307 42.1658 187.207 44.9658 187.207 48.5658Z" fill="#00ADB5"/>
<path d="M187.207 51.6658V72.2658C187.207 75.8658 184.307 78.6658 180.807 78.6658H157.107C153.507 78.6658 150.707 75.8658 150.707 72.2658V67.5658C151.907 66.0658 153.407 64.7658 155.107 63.8658C156.607 62.9658 158.307 62.3658 160.007 61.9658C161.907 61.6658 163.907 61.7658 165.807 62.0658C168.007 62.4658 170.307 63.0658 172.607 62.7658C174.307 62.4658 176.007 61.7658 177.407 60.6658C180.607 58.3658 182.807 55.1658 185.807 52.6658C186.274 52.3324 186.74 51.9991 187.207 51.6658Z" fill="#2E3238"/>
<path d="M51.0071 28.8658C52.7744 28.8658 54.207 27.4331 54.207 25.6658C54.207 23.8985 52.7744 22.4658 51.0071 22.4658C49.2398 22.4658 47.807 23.8985 47.807 25.6658C47.807 27.4331 49.2398 28.8658 51.0071 28.8658Z" fill="#2E3238"/>
<path d="M62.2001 29.4C63.9674 29.4 65.4 27.9673 65.4 26.2C65.4 24.4327 63.9674 23 62.2001 23C60.4328 23 59 24.4327 59 26.2C59 27.9673 60.4328 29.4 62.2001 29.4Z" fill="white"/>
<path d="M60.007 120.466C59.107 122.666 57.907 124.766 56.707 126.866C55.607 128.666 54.607 130.666 52.807 131.866C50.707 133.266 48.007 132.866 45.607 132.666C43.007 132.466 40.4404 132.232 37.9071 131.966C32.7071 131.466 27.607 130.766 22.607 129.566C17.907 128.466 13.207 127.066 9.00704 124.866C5.10704 122.866 1.80702 119.866 0.60702 115.866C-0.79298 111.366 0.506996 106.466 1.707 102.066C3.007 97.3658 4.70704 92.8657 6.50704 88.3657C8.10704 84.6657 9.907 80.9657 11.707 77.3657C12.1737 76.2324 12.6404 75.1324 13.107 74.0658C13.707 72.7324 14.2736 71.3991 14.807 70.0658C19.6736 69.5991 24.5737 69.3991 29.507 69.4657C31.907 69.4657 34.307 69.5658 36.707 69.7658C38.307 69.8658 39.907 70.0658 41.507 70.5658C41.207 71.5658 41.007 72.1658 40.807 72.7658C40.6736 73.2324 40.5404 73.6991 40.4071 74.1658C40.2071 74.6658 40.207 74.9658 40.107 75.2658C39.907 75.7324 39.7404 76.2324 39.607 76.7658C39.4737 77.2991 39.3403 77.7991 39.207 78.2658C38.9403 79.2658 38.6737 80.2991 38.4071 81.3657C38.2737 81.8324 38.1737 82.3324 38.107 82.8657C37.9737 83.3991 37.8403 83.8991 37.707 84.3657C37.607 84.8657 37.5071 85.3658 37.4071 85.7658C37.3404 86.2324 37.2404 86.6991 37.107 87.1658C37.0404 87.7658 36.9403 88.3657 36.807 88.9657C36.607 90.0991 36.407 91.2324 36.207 92.3657C36.1403 92.6324 36.107 92.8991 36.107 93.1658C36.0404 93.4991 35.9737 93.7991 35.9071 94.0658C35.8404 94.3991 35.807 94.7658 35.807 95.1658C35.7403 95.6324 35.6737 96.0657 35.607 96.4657C35.5404 97.0657 35.4737 97.6324 35.4071 98.1658C35.3404 98.7658 35.2737 99.3657 35.207 99.9657C39.6737 100.232 44.1404 100.532 48.607 100.866C50.607 100.966 52.607 100.966 54.607 101.266C56.407 101.466 58.007 101.966 59.107 103.366C60.007 104.466 60.407 105.766 60.507 107.166C60.5737 107.366 60.6403 107.532 60.707 107.666C62.307 111.866 61.607 116.466 60.007 120.466Z" fill="#00ADB5"/>
<path d="M156.807 133.066C154.907 142.266 152.007 151.866 141.707 154.566C138.207 155.466 135.107 155.366 132.207 154.666C127.807 153.666 123.907 150.966 120.307 147.766C116.907 144.866 113.807 141.466 110.607 138.566L109.907 139.866L103.807 151.166C102.707 153.166 100.607 154.466 98.307 154.466H24.307L43.5071 89.2657C43.9071 89.2657 64.5071 89.3657 83.4071 89.3657C90.7071 89.3657 97.8071 89.3657 103.407 89.3657C110.407 89.3657 117.007 92.5657 121.407 98.0657L134.007 113.966C134.407 112.899 134.774 111.799 135.107 110.666C142.974 113.599 150.674 116.866 158.207 120.466C158.54 120.599 158.874 120.732 159.207 120.866C159.707 121.166 157.007 131.966 156.807 133.066Z" fill="#00ADB5"/>
<path d="M156.807 133.066C154.907 142.266 152.007 151.866 141.707 154.566C138.207 155.466 135.107 155.366 132.207 154.666C131.407 154.333 130.607 153.966 129.807 153.566C126.507 151.866 123.307 149.966 120.307 147.766C116.907 144.866 113.807 141.466 110.607 138.566L109.907 139.866C109.44 139.466 109.007 139.099 108.607 138.766C108.307 138.566 108.107 138.166 108.407 137.766C106.007 135.033 103.64 132.299 101.307 129.566C101.007 129.566 100.707 129.366 100.507 129.166C99.1737 127.233 97.8737 125.266 96.607 123.266C94.007 119.266 91.507 115.199 89.107 111.066C87.907 108.999 86.707 106.899 85.507 104.766C84.407 102.766 83.207 100.766 82.507 98.6659C81.707 96.5659 81.407 94.3659 81.907 92.2659C82.2404 91.1992 82.7404 90.2325 83.407 89.3658C90.707 89.3658 97.807 89.3658 103.407 89.3658C110.407 89.3658 117.007 92.5659 121.407 98.0659L134.007 113.966C134.407 112.899 134.774 111.799 135.107 110.666C142.974 113.599 150.674 116.866 158.207 120.466C158.54 120.599 158.874 120.733 159.207 120.866C159.707 121.166 157.007 131.966 156.807 133.066Z" fill="#00ADB5"/>
<path d="M107.807 108.266C106.107 108.866 104.407 109.266 102.607 109.166C101.007 109.066 99.5071 108.466 98.1071 107.766C95.3071 106.166 93.007 103.766 91.307 101.266C89.607 98.6658 88.5071 95.6658 88.9071 92.5658C89.2071 89.6658 90.607 86.9657 93.307 85.4657C95.807 84.0657 99.007 83.9658 101.807 84.6658C102.274 84.7991 102.707 84.9658 103.107 85.1658C103.307 85.0991 103.54 85.0324 103.807 84.9657C106.907 84.4657 110.707 83.6658 113.207 85.5658C115.607 87.4658 118.207 90.2658 119.107 94.7658C120.907 104.566 110.607 107.266 107.807 108.266Z" fill="#2E3238"/>
<path d="M100.807 66.2658C99.9071 77.2658 89.5071 85.4658 77.7071 84.5658C65.8071 83.6658 57.0071 74.0658 58.0071 62.9658C58.9071 51.9658 69.3071 43.7658 81.1071 44.6658C93.0071 45.5658 101.807 55.1658 100.807 66.2658Z" fill="#2E3238"/>
<path d="M93.307 79.3658L86.9071 94.6658C78.5071 94.4658 74.4737 94.2658 74.807 94.0658C75.1404 93.8658 77.9071 88.3991 83.1071 77.6658L93.307 79.3658Z" fill="#F6B399"/>
<path d="M92.6071 82.5658C90.7071 83.2658 88.607 83.1658 86.807 82.1658C86.407 81.9658 86.4071 81.4658 86.6071 81.0658C86.8071 80.7658 87.3071 80.6658 87.6071 80.8658C88.9071 81.5658 90.5071 81.6658 91.9071 81.1658C92.3071 80.9658 92.7071 81.0658 92.9071 81.4658C93.1071 81.8658 93.0071 82.3658 92.6071 82.5658Z" fill="#EE796A"/>
<path d="M76.9071 78.2659C77.2071 77.8659 76.707 77.3659 77.307 77.0659C80.007 75.2659 79.7071 74.7659 81.6071 72.0659C85.2071 67.1659 87.207 60.6659 86.307 54.5659C86.207 54.0659 86.1071 53.6658 85.9071 52.8658C86.2071 52.5658 86.2071 52.5658 86.4071 52.3658C86.6071 52.3658 86.8071 52.3992 87.0071 52.4659C89.5071 53.1659 92.3071 54.0659 94.1071 56.0659C95.5071 57.5659 97.2071 60.2659 98.0071 62.7659C98.2071 63.2659 98.6071 63.6658 99.1071 63.8658C99.8071 64.1658 100.407 64.1659 101.207 64.1659C101.407 64.1659 101.607 64.2659 101.607 64.4659C101.707 64.8659 101.807 65.3659 101.807 65.4659C103.207 74.3659 97.907 79.9658 92.207 81.3658C87.207 82.4658 83.207 81.3659 80.207 78.7659C79.907 78.4659 76.9071 79.0659 76.9071 78.2659Z" fill="#F6B399"/>
<path d="M38.4071 81.3657C38.6738 80.2991 38.9404 79.2657 39.207 78.2657C38.9404 79.3324 38.6738 80.3657 38.4071 81.3657Z" fill="#F6B399"/>
<path d="M65.1071 40.1657C64.8071 42.2657 62.9071 43.4657 61.1071 44.6657C59.4071 45.6657 58.1071 47.0657 57.0071 48.6657C56.0071 50.2657 55.207 52.0657 54.207 53.6657C53.1404 55.3324 51.9071 56.899 50.5071 58.3657C48.7071 60.2657 46.5071 61.9657 44.1071 63.3657C43.9071 63.8324 43.7071 64.3324 43.5071 64.8657C42.7737 66.799 42.1071 68.6991 41.5071 70.5657C39.9071 70.0657 38.307 69.8657 36.707 69.7657C34.307 69.5657 31.9071 69.4657 29.5071 69.4657C24.5737 69.399 19.6737 69.5991 14.807 70.0657C16.307 66.6657 17.607 63.1657 18.707 59.5657C19.707 56.1657 20.507 52.6657 20.807 49.0657C21.007 46.7657 21.0071 44.4657 21.5071 42.2657C22.0071 40.1657 24.7071 35.4657 26.4071 34.0657C29.4071 31.4657 32.0071 29.9657 35.9071 29.0657C36.0071 27.9657 36.007 30.0657 36.207 29.0657C37.007 25.2657 38.607 21.4657 41.307 18.4657C42.507 16.9657 45.2071 12.2657 48.9071 12.3657C51.0071 12.3657 53.8071 14.0657 53.0071 15.7657C52.0071 17.7657 49.4071 21.4657 49.0071 22.4657C48.6071 23.3657 48.207 24.3657 47.807 25.3657C47.1403 27.299 46.6738 29.2657 46.4071 31.2657C46.0071 34.1657 46.0071 37.0657 46.4071 39.9657C47.4071 40.7657 48.907 40.9657 50.207 40.7657C52.707 40.2657 54.7071 38.6657 56.9071 37.4657C58.6071 36.6657 60.407 36.1657 62.307 36.5657C64.107 36.8657 65.4071 38.3657 65.1071 40.1657Z" fill="#F6B399"/>
<path d="M38.207 111.066C37.007 114.132 35.8403 117.232 34.707 120.366C30.707 131.266 27.607 142.566 25.207 153.966C25.107 154.366 24.607 154.566 24.207 154.366C23.807 154.266 23.607 153.866 23.707 153.466C24.3737 150.266 25.1071 147.066 25.9071 143.866C28.7071 132.566 32.407 121.466 36.807 110.566C37.107 109.766 38.607 110.166 38.207 111.066Z" fill="#2E3238"/>
<path d="M188.107 75.3657C187.307 76.7657 185.807 77.3657 184.307 77.9657C184.707 79.2657 184.407 80.5658 183.707 81.7658C183.007 83.1658 181.607 84.0657 180.207 84.8657C179.007 85.4657 177.807 86.0658 176.607 86.6658C176.807 88.6658 176.207 90.7657 175.007 92.3657C176.107 94.7657 174.807 97.4657 173.007 98.9657C171.207 100.466 169.007 101.366 167.207 102.766C165.507 104.066 164.107 105.666 162.807 107.466C162.54 107.799 162.307 108.166 162.107 108.566C156.507 105.366 150.74 102.532 144.807 100.066C142.94 99.1991 141.04 98.3991 139.107 97.6658C139.574 93.3324 140.44 89.0657 141.707 84.8657C142.307 82.7991 142.974 80.7658 143.707 78.7658C144.507 76.8658 145.307 74.9657 145.907 72.9657C146.207 72.0657 146.407 71.0658 146.507 70.0658C146.607 68.9658 146.407 67.9657 146.207 66.9657C145.907 65.3657 145.707 63.4658 146.707 62.0658C146.707 61.7658 146.707 61.5657 146.907 61.3657C148.107 60.1657 149.907 60.0658 151.407 60.5658C154.707 61.6658 155.607 65.4658 155.607 68.5658C155.707 71.3658 155.207 75.0658 157.407 77.2658C160.874 76.1324 164.34 75.0658 167.807 74.0658C172.274 72.7991 176.74 71.6324 181.207 70.5658C183.207 70.1658 185.207 69.5658 187.107 70.6658C188.807 71.6658 189.107 73.7657 188.107 75.3657Z" fill="#F6B399"/>
<path d="M94.307 82.5657C94.207 83.5657 92.607 83.4657 92.707 82.4657C92.7737 82.1991 92.807 81.8991 92.807 81.5657C92.907 81.3657 93.007 81.0657 93.307 80.9657C94.5737 80.4324 95.7738 79.7324 96.9071 78.8657C101.107 75.4657 102.607 69.6657 100.807 64.5657C100.607 64.1657 101.007 63.6657 101.407 63.6657C101.807 63.5657 102.107 63.8657 102.307 64.1657C102.907 65.8657 103.207 67.5657 103.107 69.3657C103.007 74.9657 99.507 80.0657 94.307 82.5657Z" fill="white"/>
<path d="M118.207 95.6658C117.607 95.5324 117.007 95.4324 116.407 95.3658C116.207 95.4658 115.907 95.3658 115.707 95.2658C113.04 94.8658 110.374 94.6991 107.707 94.7658C101.507 94.8658 95.2071 96.1658 89.4071 98.3658C85.2071 100.066 81.307 102.166 77.607 104.766C76.707 107.666 75.407 110.666 74.007 113.566C68.207 125.566 55.3071 126.766 46.9071 125.666C41.3737 124.932 37.507 122.166 35.307 117.366C31.2403 119.299 26.9404 119.266 22.4071 117.266C15.0071 113.966 13.607 105.266 16.507 96.0658C21.707 79.5658 39.507 80.6658 46.707 77.5658C53.7737 74.5658 57.9736 67.9324 59.307 57.6658L78.507 62.2658C78.507 62.4658 78.507 62.7324 78.507 63.0658C78.807 63.1658 79.007 63.2658 79.107 63.6658C80.507 69.3324 82.207 74.9324 84.207 80.4658C86.607 82.4658 89.407 83.2658 92.007 83.5658C97.607 84.1658 103.307 82.8658 108.807 84.4658C111.107 85.1658 113.307 86.3658 114.807 88.2658C115.34 88.7991 115.774 89.3991 116.107 90.0658C117.407 91.2658 117.407 92.5658 118.007 94.2658C118.307 94.9658 118.907 95.7658 118.207 95.6658Z" fill="#2E3238"/>
<path d="M81.6071 80.2658C84.3133 80.2658 86.5071 78.072 86.5071 75.3658C86.5071 72.6596 84.3133 70.4658 81.6071 70.4658C78.9009 70.4658 76.707 72.6596 76.707 75.3658C76.707 78.072 78.9009 80.2658 81.6071 80.2658Z" fill="#F6B399"/>
<path d="M84.6071 74.2659C83.4071 75.0659 81.9071 75.3659 80.4071 75.2659C80.0071 75.1659 79.707 74.8659 79.707 74.4659C79.707 74.0659 80.1071 73.6659 80.5071 73.6659C80.8071 73.7659 81.207 73.7659 81.807 73.6659C81.9403 73.6659 82.107 73.6325 82.307 73.5659C82.407 73.5659 82.6071 73.5658 83.1071 73.3658C83.3737 73.2325 83.6404 73.0992 83.9071 72.9659C84.3071 72.6659 84.8071 72.8659 85.0071 73.2659C85.2071 73.6659 85.0071 74.0659 84.6071 74.2659Z" fill="#EE796A"/>
<path d="M93.5071 69.3658C94.3907 69.3658 95.1071 68.6494 95.1071 67.7658C95.1071 66.8821 94.3907 66.1658 93.5071 66.1658C92.6234 66.1658 91.9071 66.8821 91.9071 67.7658C91.9071 68.6494 92.6234 69.3658 93.5071 69.3658Z" fill="#2E3238"/>
<path d="M93.607 63.2658C93.407 63.6658 93.207 63.5658 92.107 63.9658C91.107 64.4658 90.2071 65.1658 89.4071 65.8658C89.0071 66.2658 88.007 67.2658 87.607 67.1658C87.407 67.1658 87.307 66.9658 87.307 66.7658C87.007 65.8658 88.307 64.3658 88.807 63.6658C89.607 62.5658 90.6071 61.6658 91.9071 61.1658C92.5071 61.0658 93.207 61.0658 93.607 61.5658C94.007 62.0658 93.807 62.6658 93.607 63.2658Z" fill="#2E3238"/>
<path d="M90.8071 57.9659C90.2737 59.5659 89.6405 61.0659 88.9072 62.4659C87.4072 65.4659 85.4071 68.0659 83.2071 70.5659C82.6071 71.1659 81.7071 70.2659 82.0071 69.5659C81.7071 69.3659 81.6071 69.2659 81.5071 69.1659C80.8071 68.3659 80.6071 67.7659 80.6071 67.2659C80.5404 66.1992 80.5071 65.1659 80.5071 64.1659C80.4071 62.0659 80.4071 59.9659 80.5071 57.8659C80.7071 56.1659 80.8072 54.2659 81.4072 52.7659C82.0072 51.1659 83.2071 50.1659 84.8071 49.7659C86.2071 49.3659 88.0071 49.2659 89.3071 49.9659C90.8071 50.5659 91.5071 51.9659 91.6071 53.4659C91.7071 54.9659 91.2071 56.5659 90.8071 57.9659Z" fill="#2E3238"/>
<path d="M85.7071 73.3657C85.7071 74.0657 84.607 74.3657 84.307 73.6657C83.7737 72.5991 83.1738 71.5657 82.5071 70.5657C82.2071 70.2657 82.2071 69.7657 82.5071 69.4657C82.7071 69.3657 83.107 69.2657 83.307 69.3657C83.2404 68.6324 83.1737 67.8657 83.1071 67.0657C83.1071 66.6657 83.3071 66.2657 83.7071 66.1657C83.9071 66.1657 84.107 66.1991 84.307 66.2657C84.707 65.9657 85.4071 66.0657 85.5071 66.6657C85.9071 68.8657 85.8071 71.1657 85.7071 73.3657Z" fill="#2E3238"/>
<path d="M162.107 108.566C161.84 108.899 161.607 109.266 161.407 109.666C161.107 111.166 161.007 111.666 160.907 112.266C160.84 112.466 160.807 112.632 160.807 112.766C160.74 112.966 160.707 113.166 160.707 113.366C160.64 113.566 160.607 113.732 160.607 113.866C160.507 114.566 160.407 114.766 160.407 115.066C160.34 115.199 160.307 115.366 160.307 115.566C160.24 115.766 160.174 115.999 160.107 116.266C159.907 117.666 159.607 119.266 159.207 120.866C158.874 120.732 158.54 120.599 158.207 120.466C150.674 116.866 142.974 113.599 135.107 110.666C135.574 109.266 136.04 107.932 136.507 106.666C136.774 105.866 137.007 105.099 137.207 104.366C137.74 102.699 138.307 101.066 138.907 99.4658C138.907 98.7658 139.007 98.2658 139.107 97.6658C141.04 98.3991 142.94 99.1991 144.807 100.066C150.74 102.532 156.507 105.366 162.107 108.566Z" fill="white"/>
<path d="M43.5071 64.8658C42.7737 66.7991 42.1071 68.6991 41.5071 70.5658C40.9071 72.3658 40.5071 73.8658 40.1071 75.2658C39.1737 75.0658 38.2403 74.8991 37.307 74.7658C29.5737 73.5658 21.7738 72.7325 13.9071 72.2658C14.2404 71.5325 14.5403 70.7991 14.807 70.0658C16.307 66.6658 17.607 63.1658 18.707 59.5658C20.0404 59.6325 21.407 59.7325 22.807 59.8658C29.907 60.6658 36.9071 62.3658 43.5071 64.8658Z" fill="white"/>
<path d="M100.607 73.3658C100.607 73.5658 100.407 73.6658 100.207 73.7658C99.0071 74.5658 97.5071 74.5658 96.2071 73.8658C95.8071 73.6658 95.8071 73.1658 96.0071 72.7658C96.2071 72.4658 96.7071 72.3658 99.5071 72.3658C99.9071 72.1658 100.407 72.3658 100.607 72.7658C100.707 72.8658 100.707 73.1658 100.607 73.3658Z" fill="#EE796A"/>
<path d="M189.007 75.1658C188.107 76.8658 186.307 77.8658 184.607 78.4658C182.607 79.2658 180.507 79.9658 178.507 80.6658C176.374 81.3991 174.274 82.1658 172.207 82.9658C174.107 80.5658 176.307 79.8658 178.407 79.0658C180.307 78.3658 182.307 77.7658 184.107 76.9658C185.707 76.3658 187.307 75.5658 187.907 73.9658C188.307 72.4658 187.307 71.2658 186.007 70.7658C184.307 70.0658 182.507 70.6658 180.907 71.1658C172.807 73.5658 164.907 76.1658 156.907 78.6658C156.507 78.8658 156.007 78.4658 156.007 78.0658C155.907 77.6658 156.207 77.2658 156.607 77.1658L171.007 72.6658C173.14 71.9991 175.24 71.3324 177.307 70.6658C179.307 69.9658 181.407 69.1658 183.407 68.9658C185.307 68.7658 187.107 69.1658 188.407 70.5658C189.707 71.7658 189.807 73.6658 189.007 75.1658Z" fill="white"/>
<path d="M184.807 78.8658C184.807 81.2658 183.507 83.3658 181.807 84.7658C179.607 86.5658 176.907 87.2658 174.307 87.9658C173.307 88.2658 173.007 86.7658 174.007 86.4658C176.307 85.8658 178.707 85.2658 180.607 83.7658C182.207 82.4658 183.307 80.7658 183.207 78.7658C183.207 78.3658 183.707 78.0658 184.107 78.0658C184.507 78.0658 184.707 78.4658 184.807 78.8658Z" fill="white"/>
<path d="M53.107 17.2658C52.507 19.1658 51.007 20.7657 50.007 22.4657C49.007 24.2657 48.207 26.0657 47.707 27.9657C46.707 31.8657 46.707 35.9658 47.707 39.7658C48.007 40.7658 46.407 41.0658 46.207 40.1658C45.107 35.9658 45.207 31.5657 46.307 27.4657C46.7736 25.5991 47.4737 23.8324 48.4071 22.1658C48.8737 21.3658 49.3737 20.5658 49.9071 19.7658C50.4071 18.9658 51.107 18.1658 51.507 17.2658C52.107 15.8658 52.007 13.7657 50.107 13.4657C48.307 13.1657 46.507 14.4657 45.207 15.4657C39.707 19.8657 36.407 26.8657 36.707 33.8657C36.707 34.2657 36.3071 34.5657 35.9071 34.5657C35.5071 34.5657 35.207 34.1658 35.207 33.7658C35.007 29.5658 36.107 25.2657 38.107 21.5657C39.907 18.2657 42.507 15.3658 45.707 13.2658C47.407 12.1658 49.5071 11.3657 51.4071 12.3657C53.3071 13.2657 53.707 15.4658 53.107 17.2658Z" fill="white"/>
<path d="M65.4071 40.6658C65.0071 42.2658 63.507 43.3658 62.207 44.2658C60.707 45.2658 59.407 46.3658 58.307 47.7658C57.207 49.2658 56.207 50.8658 55.307 52.4658C54.307 54.1658 53.2071 55.7658 51.9071 57.2658C49.4071 60.2658 46.4071 62.7658 43.0071 64.7658C42.2071 65.2658 41.507 63.8658 42.307 63.3658C45.907 61.2658 49.107 58.4658 51.607 55.1658C53.807 52.2658 55.307 48.8658 57.607 46.1658C58.207 45.4324 58.8404 44.7991 59.5071 44.2658C60.2071 43.6658 60.907 43.2658 61.607 42.7658C62.607 42.0658 64.1071 41.0658 63.9071 39.5658C63.8071 38.2658 62.407 37.3658 61.307 37.0658C59.607 36.6658 57.907 37.4658 56.607 38.2658C54.907 39.1658 53.407 40.2658 51.607 40.9658C49.807 41.6658 47.807 41.7658 46.107 40.8658C45.707 40.7658 45.607 40.1658 45.807 39.8658C46.107 39.4658 46.5071 39.4658 46.9071 39.5658C48.9071 40.5658 51.3071 39.5658 53.0071 38.5658C54.9071 37.4658 56.7071 36.1658 58.9071 35.6658C60.5071 35.2658 62.307 35.5658 63.607 36.4658C65.007 37.4658 65.7071 38.9658 65.4071 40.6658Z" fill="white"/>
<path d="M36.6071 29.8658C36.6071 30.2658 36.207 30.5658 35.807 30.5658C34.207 30.6658 32.607 31.0658 31.207 31.6658C25.807 33.8658 22.2071 39.1658 22.1071 44.9658C22.0071 45.9658 20.5071 45.8658 20.5071 44.9658C20.6071 43.1658 20.9071 41.2658 21.5071 39.6658C23.8071 33.5658 29.4071 29.4658 35.9071 29.0658C36.3071 28.9658 36.6071 29.4658 36.6071 29.8658Z" fill="white"/>
<path d="M31.9071 31.7658C31.8405 31.8991 31.7404 32.0324 31.6071 32.1658C31.4071 32.4658 31.2071 32.7658 30.9071 33.4658C30.8405 33.5991 30.7737 33.7658 30.7071 33.9658C30.7071 34.1658 30.6071 34.2658 30.5071 34.8658C30.5071 35.2658 30.2071 35.5658 29.7071 35.5658C29.3071 35.5658 28.9071 35.1658 29.0071 34.7658C29.2071 33.0658 30.0071 31.5658 31.2071 30.3658C31.5071 29.9658 32.007 30.0658 32.307 30.3658C32.607 30.6658 32.5071 31.1658 31.9071 31.7658Z" fill="white"/>
<path d="M109.407 139.566C106.674 136.232 103.94 132.899 101.207 129.566C100.607 128.866 101.707 127.766 102.307 128.566C105.107 131.899 107.874 135.232 110.607 138.566C111.207 139.266 110.107 140.366 109.407 139.566Z" fill="#2E3238"/>
<path d="M160.907 58.9658C164.221 58.9658 166.907 56.2795 166.907 52.9658C166.907 49.6521 164.221 46.9658 160.907 46.9658C157.593 46.9658 154.907 49.6521 154.907 52.9658C154.907 56.2795 157.593 58.9658 160.907 58.9658Z" fill="white"/>
<path d="M119.607 67.2658C117.94 68.5325 116.307 69.7991 114.707 71.0658C116.107 72.1991 117.607 73.2325 119.207 74.1658C120.007 74.6658 119.207 75.9658 118.307 75.4658C116.44 74.3325 114.674 73.0991 113.007 71.7658C112.607 71.4658 112.407 70.8658 112.907 70.4658C114.774 69.0658 116.674 67.6325 118.607 66.1658C118.907 65.8658 119.407 65.8658 119.707 66.1658C119.907 66.4658 119.907 67.0658 119.607 67.2658Z" fill="#2E3238"/>
<path d="M134.207 70.7658C132.341 72.2991 130.507 73.8658 128.707 75.4658C128.007 76.1658 126.907 74.9658 127.707 74.3658C129.24 72.9658 130.807 71.5991 132.407 70.2658C130.874 69.2658 129.34 68.2658 127.807 67.2658C126.907 66.6658 127.807 65.3658 128.607 65.9658C130.407 67.1658 132.24 68.3658 134.107 69.5658C134.507 69.7658 134.507 70.3658 134.207 70.7658Z" fill="#2E3238"/>
<path d="M157.307 77.4658C155.907 76.3658 155.007 74.7658 154.607 73.0658C153.907 69.6658 154.907 65.9658 153.207 62.8658C152.607 61.7658 151.707 60.7658 150.307 60.6658C149.207 60.4658 148.107 60.8658 147.507 61.9658C147.307 62.3658 146.807 62.3658 146.507 62.1658C146.107 61.9658 146.007 61.4658 146.207 61.0658C147.007 59.6658 148.707 58.9658 150.307 59.0658C153.707 59.3658 155.407 62.8658 155.707 65.9658C155.907 67.9658 155.707 70.0658 156.007 72.0658C156.307 73.5658 156.807 75.1658 158.107 76.1658C158.907 76.7658 158.107 78.0658 157.307 77.4658Z" fill="white"/>
<path d="M147.607 61.9658C146.407 64.2658 146.707 66.9658 146.707 69.4658C146.707 72.1658 146.207 74.6658 145.207 77.2658C144.307 79.4658 143.307 81.6658 142.407 83.8658C141.407 86.2658 140.807 88.6658 140.307 91.2658C139.807 93.7658 139.507 96.3658 139.007 98.9658C138.54 101.432 137.941 103.899 137.207 106.366C134.407 116.266 130.007 125.666 125.707 135.066C125.507 135.366 125.207 135.666 124.707 135.566C124.407 135.366 124.107 134.966 124.307 134.566C126.707 129.266 129.207 123.966 131.307 118.566C133.307 113.766 135.007 108.866 136.307 103.866C136.974 101.399 137.507 98.8991 137.907 96.3658C138.307 93.7658 138.707 91.1658 139.307 88.5658C139.807 86.1658 140.707 83.7658 141.707 81.4658C142.607 79.2658 143.707 77.1658 144.407 74.8658C144.74 73.7324 144.974 72.5991 145.107 71.4658C145.207 70.2658 145.107 69.0658 145.107 67.8658C145.107 65.5658 145.207 63.1658 146.307 61.1658C146.807 60.2658 148.107 61.0658 147.607 61.9658Z" fill="white"/>
<path d="M196.407 114.466C195.807 115.566 194.507 116.066 193.407 115.866C192.207 115.666 191.107 114.866 190.807 113.666C190.74 113.466 190.74 113.299 190.807 113.166C190.74 113.032 190.707 112.866 190.707 112.666C190.807 111.266 191.907 110.166 193.207 109.866C194.507 109.566 195.707 110.166 196.407 111.266C196.907 112.266 196.907 113.566 196.407 114.466Z" fill="#2E3238"/>
<path d="M110.007 59.5658C109.407 60.4658 108.307 60.7658 107.307 60.3658C106.907 60.2658 106.407 59.9658 106.107 59.5658C105.807 59.2658 105.607 58.7658 105.507 58.0658C105.507 56.9658 106.507 55.9658 107.607 55.6658C108.607 55.4658 109.707 55.8658 110.207 56.8658C110.607 57.6658 110.607 58.7658 110.007 59.5658Z" fill="#2E3238"/>
<path d="M109.807 48.9659C107.74 49.8992 105.674 50.8325 103.607 51.7659C103.007 52.0659 102.307 51.4659 102.507 50.8659C103.24 48.7325 104.007 46.5992 104.807 44.4659C105.107 43.6659 106.307 43.9659 106.307 44.7659C107.507 45.6992 108.707 46.6325 109.907 47.5659C110.307 47.9659 110.407 48.6659 109.807 48.9659Z" fill="#00ADB5"/>
</svg>
