<svg width="171" height="155" viewBox="0 0 171 155" fill="none" xmlns="http://www.w3.org/2000/svg">
<path d="M153.911 49.4C156.011 73.2 138.311 92.6 114.511 92.6C90.611 92.6 69.611 73.2 67.511 49.4C65.411 25.5 83.0109 6.09998 106.911 6.09998C130.811 6.09998 151.811 25.5 153.911 49.4Z" fill="#FFBB4D"/>
<path d="M97.011 143.6H27.1108C23.7108 143.6 20.7109 140.8 20.4109 137.4L9.21092 9.39998C8.91092 5.99998 13.2108 0.0999756 16.6108 0.0999756L84.811 3.19998C88.211 3.19998 91.2109 5.99998 91.4109 9.39998L105.611 135C105.911 138.4 100.411 143.6 97.011 143.6Z" fill="#2E3238"/>
<path d="M99.9246 141.3H29.9246C26.5246 141.3 23.5246 138.5 23.2246 135.2L12.0244 7.1C11.7244 3.7 14.2245 1 17.6245 1H87.6245C91.0245 1 94.0245 3.7 94.3245 7.1L105.524 135.2C105.824 138.5 103.325 141.3 99.9246 141.3Z" fill="#2E3238"/>
<path d="M95.9108 136H34.4108C31.0108 136 28.0108 133.3 27.7108 129.9L25.7108 106.1L25.3109 101.9L17.3109 10.1C16.9109 6.60002 19.5108 3.90002 22.9108 3.90002H84.3109C87.7109 3.90002 90.7109 6.60002 91.0109 10C91.0109 10.0667 92.8442 30.9334 96.5109 72.6L99.0109 101.9L101.511 129.9C101.811 133.3 99.3108 136 95.9108 136Z" fill="white"/>
<path d="M95.9109 136H34.4109C31.0109 136 28.0109 133.3 27.7109 129.9L25.7109 106.1C27.2109 104.6 29.1109 103.2 31.2109 102.8C36.1109 101.8 39.7109 106 44.2109 106.7C49.0109 107.5 53.3109 103.9 55.9109 100.1C58.8109 95.8 60.2108 90.6 63.1108 86.3C69.0108 77.7 79.5109 74.3 89.4109 73.2C91.7442 72.9333 94.111 72.7333 96.511 72.6L99.011 101.9L101.511 129.9C101.811 133.3 99.3109 136 95.9109 136Z" fill="#DADEF1"/>
<path d="M44.011 54.3001C44.511 59.3001 40.8111 63.3001 35.8111 63.3001C30.8111 63.3001 26.4109 59.3001 25.9109 54.3001C25.5109 49.3001 29.211 45.2001 34.211 45.2001C39.211 45.2001 43.611 49.3001 44.011 54.3001Z" fill="#FFBB4D"/>
<path d="M39.2109 54.8L34.2109 58.2C33.7109 58.5 32.9109 58.2 32.9109 57.5L32.311 50.7C32.211 50 33.0108 49.5 33.6108 49.9L39.2109 53.3C39.7109 53.6 39.7109 54.4 39.2109 54.8Z" fill="white"/>
<path d="M91.0109 10.1H17.3109C16.9109 6.60002 19.5108 3.90002 22.9108 3.90002H84.3109C87.7109 3.90002 90.7109 6.60002 91.0109 10V10.1Z" fill="#00ADB5"/>
<path d="M66.9109 7.50005H44.011C41.411 7.50005 39.1109 5.40005 38.9109 2.80005H71.2109C71.4109 5.40005 69.5109 7.50005 66.9109 7.50005Z" fill="#2E3238"/>
<path d="M128.911 43.4C129.311 44.6 129.811 45.8 130.411 46.7C131.711 48.7 132.711 49.1 133.111 49.2C132.211 49.2 128.611 49 125.811 47C124.411 46.1 123.311 45 122.511 44H66.4109C61.5109 44 57.6108 40.1 57.6108 35.2C57.6108 30.4 61.5109 26.4 66.4109 26.4H125.711C130.511 26.4 134.411 30.4 134.411 35.2C134.411 39 132.111 42.1 128.911 43.4Z" fill="#00ADB5"/>
<path d="M94.1107 61.6C91.3107 58.6667 91.6441 55.2 95.1107 51.2C100.311 45.2 108.711 44.2 119.911 50.1C127.911 54.3 131.611 53.4 133.111 52.5C134.611 51.6 141.111 46.8 148.511 48.5C155.711 50.1 157.911 52.6 160.911 50.8C164.444 48.6 167.711 48.1334 170.711 49.4V87.2C167.311 91.6 163.178 93.8 158.311 93.8C153.111 93.8 146.811 89.2 141.711 89.2C137.411 89.2 134.611 94.9 126.711 92.4C122.611 91.1 109.811 87.3 108.011 82.6C106.211 77.8 101.511 71.2 103.011 71C103.211 70.9334 100.244 67.8 94.1107 61.6Z" fill="#2E3238"/>
<path d="M104.711 72.6C110.51 72.6 115.211 67.899 115.211 62.1C115.211 56.301 110.51 51.6 104.711 51.6C98.9119 51.6 94.2109 56.301 94.2109 62.1C94.2109 67.899 98.9119 72.6 104.711 72.6Z" fill="#2E3238"/>
<path d="M108.111 79.2C105.644 78.9333 103.211 78.5333 100.811 78C100.711 77.9 100.511 77.9 100.411 77.7C99.8109 75.5667 99.2109 73.4667 98.6109 71.4C96.4109 71.4 94.411 70.1 93.311 68.2C92.711 67.3 92.3109 66.3 92.1109 65.2C91.9775 64.6667 91.8777 64.1 91.811 63.5C91.811 63 91.711 62.4 91.811 61.9C91.8777 61.3667 92.1776 61 92.7109 60.8C93.1109 60.6 93.4109 60.5 93.7109 60.2C94.2109 59.5 94.4109 58.6 94.7109 57.8C95.8109 54.3 99.211 51.8 102.811 51.9C102.478 52.3667 102.211 52.8667 102.011 53.4C101.111 55.6 101.011 58.2 101.911 60.5C102.311 61.7 103.111 62.8 104.011 63.8C104.311 65.1 104.511 66 104.811 67C105.811 70.9333 107.078 74.7667 108.611 78.5C108.811 78.9 108.511 79.2 108.111 79.2Z" fill="#FFA895"/>
<path d="M105.411 67.4C107.344 67.4 108.911 65.833 108.911 63.9C108.911 61.967 107.344 60.4 105.411 60.4C103.478 60.4 101.911 61.967 101.911 63.9C101.911 65.833 103.478 67.4 105.411 67.4Z" fill="#FFA895"/>
<path d="M70.2109 85.8C72.6109 91.5 76.1109 100.1 78.9109 106.7C76.7108 107.7 74.111 108.9 71.811 110C70.511 110.6 69.0109 111.4 67.5109 112.1C61.7109 115 54.6109 112.9 51.4109 107.2L42.311 91.2L38.9109 85.1C38.2442 83.5667 37.6109 82.0334 37.0109 80.5C36.5109 79.2 36.0109 77.8 34.7109 77.1C33.9776 76.7 33.2109 76.3334 32.4109 76C31.8109 75.7 31.1108 75.4 30.6108 75C29.5108 74.2 29.1109 72.9 30.0109 71.9C31.0109 70.8 32.6109 70.9 33.9109 71.2C34.8442 71.4 35.7109 71.7 36.5109 72.1C36.1109 71.7667 35.6776 71.4333 35.2109 71.1C34.3109 70.5 33.311 70.2 32.311 69.9C31.411 69.6 30.411 69.1 30.311 67.9C30.211 66.9 30.9109 66.1 31.7109 65.6C31.2109 65.1 30.9109 64.5 31.0109 63.8C31.2109 62.9 31.8108 62.2 32.6108 61.9C33.5108 61.5 34.5109 61.5 35.4109 61.6C36.4109 61.7333 37.3442 61.9667 38.2109 62.3C39.1442 62.6333 40.0442 63.0667 40.9109 63.6C40.7109 62.4 40.0109 61.1 38.9109 60.2C38.5775 59.8667 38.211 59.6 37.811 59.4C37.211 59.2 36.6108 59.1 36.1108 58.7C35.3108 58.1 35.1109 57 35.4109 56.1C35.8109 55.2 36.7108 54.6 37.6108 54.5C38.6108 54.3 39.7109 54.6 40.5109 55.1C42.4109 56.2 43.9108 58 45.1108 59.8C47.7108 63.7 49.211 68.1 50.811 72.5C51.0777 73.1 51.3441 73.7334 51.6108 74.4L61.2109 91.1C63.7442 89.7 66.7442 87.9333 70.2109 85.8Z" fill="#FFA895"/>
<path d="M47.0109 63.1C45.9109 61.2 44.6109 59.3 43.0109 57.8C41.8109 56.5 40.3108 55.4 38.6108 55.2C37.7108 55.1 36.8109 55.2 36.2109 55.9C35.6109 56.6 35.711 57.4 36.311 58C37.011 58.6 38.011 58.8 38.811 59.4C39.511 59.8 40.0109 60.4 40.5109 61C41.0109 61.7 41.4109 62.5 41.7109 63.3C42.0442 64.0333 42.3441 64.7667 42.6108 65.5C42.3108 65.4 42.111 65 41.811 64.7C41.5443 64.4333 41.2776 64.1667 41.0109 63.9C40.7442 63.2333 40.4109 62.6 40.0109 62C39.6776 61.4667 39.2776 61 38.811 60.6C37.411 59.4 34.611 59 34.811 56.7C35.011 54.6 37.4109 53.9 39.2109 54.3C41.1109 54.7 42.7109 56 44.0109 57.4C45.5109 59 46.8108 60.8 47.9108 62.7C48.2108 63.3 47.3109 63.6 47.0109 63.1Z" fill="white"/>
<path d="M96.011 116.3C96.1443 116.5 96.2776 116.767 96.4109 117.1C96.2776 116.833 96.1443 116.567 96.011 116.3Z" fill="#FFA895"/>
<path d="M148.811 120.2C141.511 127.4 129.611 139.2 129.211 138.7C128.744 138.3 124.211 134.967 115.611 128.7C126.478 120.033 132.311 115 133.111 113.6C133.211 113.5 132.611 112.7 131.411 111.5C126.011 105.9 109.511 91 109.411 90.8C109.344 90.6 113.644 86.8 122.311 79.4C128.311 81.2667 133.511 85.3 137.911 91.5C139.811 94.2 141.911 97.3 144.111 100.2C146.111 103.1 148.111 105.9 149.811 108.2C152.411 111.9 152.011 117 148.811 120.2Z" fill="#FFA895"/>
<path d="M144.111 100.2C140.111 103.6 135.111 108.2 131.411 111.5C126.011 105.9 109.511 91 109.411 90.8C109.344 90.6 113.644 86.8 122.311 79.4C128.311 81.2667 133.511 85.3 137.911 91.5C139.811 94.2 141.911 97.3 144.111 100.2Z" fill="#00ADB5"/>
<path d="M99.9109 132.1C100.111 129.2 99.9109 126.2 98.9109 123.7C98.8442 123.5 98.7776 123.267 98.7109 123C97.9776 121.133 97.3776 119.567 96.9109 118.3H129.311C129.711 118.967 130.178 119.667 130.711 120.4C131.378 121.333 132.011 122.2 132.611 123C138.311 130.8 139.911 132.7 141.511 136.2C141.711 136.667 141.911 137.1 142.111 137.5C142.511 138.3 142.711 138.8 142.911 139.3C143.211 139.9 143.311 140.3 143.511 140.6C144.011 141.7 144.311 142.4 144.511 142.9C144.811 143.5 147.411 153.6 147.411 153.6L93.011 154.2L97.511 143.5C98.111 141.7 98.1109 141.6 98.2109 141.4C98.2776 141.2 98.3442 141 98.4109 140.8C98.5109 140.3 98.5108 140.1 98.6108 139.9C99.1108 138 99.5109 136 99.7109 133.8C99.7776 133.533 99.811 133.267 99.811 133C99.811 132.8 99.8442 132.6 99.9109 132.4C99.9109 132.267 99.9109 132.167 99.9109 132.1Z" fill="#2E3238"/>
<path d="M128.211 116.8C128.544 117.267 128.911 117.767 129.311 118.3H96.9109C96.7109 117.9 96.5442 117.5 96.4109 117.1C96.2776 116.767 96.1443 116.5 96.011 116.3C95.711 115.5 95.5109 115.1 95.4109 114.8C95.0109 114 94.911 113.7 94.811 113.6C94.811 113.5 91.311 110.6 88.311 108.7C86.2444 107.433 84.911 105.9 84.311 104.1C82.711 104.833 80.9109 105.7 78.9109 106.7C76.1109 100.1 72.6109 91.5 70.2109 85.8C72.0109 84.6 74.011 83.4 76.011 82C84.411 76.5 88.411 74.4 98.511 75.2C108.611 76 109.111 75.5 114.311 76.7C119.611 78 126.411 80.4 128.811 83.8C131.211 87.3 129.411 93.8 128.411 97.3C127.678 99.7 126.578 103.133 125.111 107.6C124.978 107.8 124.944 108.167 125.011 108.7C125.011 109 125.011 109.1 125.011 109.3C125.311 110.7 125.711 111.9 126.411 113.5C127.111 114.7 127.411 115.3 127.811 115.9C127.944 116.167 128.078 116.467 128.211 116.8Z" fill="#00ADB5"/>
<path d="M132.611 123H98.7109C97.9776 121.133 97.3776 119.567 96.9109 118.3H129.311C129.711 118.967 130.178 119.667 130.711 120.4C131.378 121.333 132.011 122.2 132.611 123Z" fill="#00ADB5"/>
<path d="M97.1108 58.7C96.1108 58.4 96.0109 58.6 95.9109 58.8C96.9109 59 97.0108 58.9 97.1108 58.7Z" fill="#36174D"/>
<path d="M99.311 57.7001C99.111 57.8001 98.7109 57.7001 96.9109 56.2001C96.6109 56.1001 96.4109 55.9001 96.4109 55.6001C96.4109 55.3001 96.711 55.2001 97.011 55.2001C98.111 55.2001 99.211 56.0001 99.511 57.1001C99.611 57.4001 99.511 57.6001 99.311 57.7001Z" fill="#2E3238"/>
<path d="M94.1109 63.5C93.4442 64.0333 92.7444 64.5333 92.0111 65C91.8111 65.1 91.5111 65.1 91.3111 64.9C91.2111 64.7 91.211 64.3 91.411 64.2C92.1443 63.7333 92.8444 63.2333 93.5111 62.7C93.7111 62.5 94.011 62.6 94.211 62.8C94.411 63 94.3109 63.3 94.1109 63.5Z" fill="#F76D6D"/>
<path d="M106.411 63.1C105.477 63.5 104.544 63.9 103.611 64.3C103.311 64.4 103.111 64.3 103.011 64C102.911 63.8 103.011 63.5 103.211 63.4C104.144 63.0666 105.111 62.7 106.111 62.3C106.311 62.2 106.611 62.3 106.711 62.5C106.811 62.7 106.611 63 106.411 63.1Z" fill="#F76D6D"/>
<path d="M44.011 68.0001C43.611 67.2001 43.1442 66.4334 42.6109 65.7001C42.3442 65.3668 42.0777 65.0334 41.8111 64.7001C41.5444 64.4334 41.2777 64.1668 41.011 63.9001C39.511 62.6001 37.611 61.8001 35.511 61.7001C34.411 61.7001 33.011 61.9001 32.011 62.6001C31.311 63.1001 31.311 64.3001 32.011 64.9001C32.411 65.3001 31.9109 66.1001 31.4109 65.7001C30.4109 64.8001 30.2109 63.2001 31.1109 62.2001C31.5109 61.7001 32.2109 61.4001 32.9109 61.2001C33.5776 61.0001 34.3109 60.8667 35.1109 60.8001C36.5109 60.7001 38.0111 61.0001 39.3111 61.6001C39.5777 61.7334 39.811 61.8668 40.011 62.0001C40.611 62.3334 41.1776 62.7667 41.711 63.3001C43.111 64.5001 44.1109 66.0001 44.9109 67.6001C45.2109 68.2001 44.311 68.6001 44.011 68.0001Z" fill="white"/>
<path d="M41.2109 71.0001C40.2109 69.3001 38.9109 67.9001 37.2109 67.0001C36.4109 66.5001 35.511 66.2 34.511 65.9C33.611 65.7 32.611 65.5 31.511 66.1C30.811 66.5 30.4109 67.2 30.7109 67.9C31.1109 68.9 32.2108 68.9001 33.1108 69.2001C34.0108 69.5001 35.011 70.0001 35.811 70.5001C36.611 71.0001 37.3109 71.6001 37.7109 72.5001C37.9109 73.0001 37.011 73.4 36.811 72.8C36.411 71.9 35.5108 71.3 34.6108 70.9C34.0775 70.6334 33.5443 70.4001 33.011 70.2001C32.511 70.0001 31.911 69.9001 31.311 69.7001C30.311 69.4001 29.6109 68.4 29.7109 67.3C29.7109 66.3 30.411 65.4 31.511 65.1C32.411 64.7 33.411 64.7 34.311 64.9C35.3777 65.1 36.3777 65.4667 37.311 66.0001C39.311 67.0001 40.911 68.5 42.011 70.4C42.311 70.9 41.5109 71.5001 41.2109 71.0001Z" fill="white"/>
<path d="M94.0109 99.6C91.2775 100.933 88.5774 102.267 85.9108 103.6C81.1108 105.933 76.3109 108.2 71.5109 110.4C67.3109 112.3 62.2107 115.2 57.6107 113.2C57.0107 112.9 57.3108 112 57.9108 112.3C60.4108 113.3 63.1107 112.8 65.6107 111.9C67.9107 111.1 70.2109 110 72.5109 108.9C74.8442 107.833 77.1775 106.733 79.5109 105.6C84.2442 103.333 88.9441 101.033 93.6107 98.7C94.1107 98.4 94.5109 99.3 94.0109 99.6Z" fill="white"/>
<path d="M147.811 153.2H146.811C146.411 152.2 143.411 141.4 143.011 140.4C142.278 138.467 141.411 136.567 140.411 134.7C137.211 128.8 133.011 123.7 129.111 118.3C128.577 117.633 128.044 116.933 127.511 116.2C126.511 114.7 125.511 113.1 125.011 111.3C124.511 109.4 124.711 107.6 125.311 105.8C126.111 103.9 126.911 102.1 127.511 100.1C128.178 98.1667 128.744 96.2 129.211 94.2C129.311 93.6 130.311 93.7 130.211 94.4C129.678 96.6 129.044 98.7667 128.311 100.9C127.911 101.967 127.511 103.033 127.111 104.1C126.711 105.1 126.211 106.1 125.911 107.1C124.811 110.9 127.411 114.3 129.511 117.3C131.711 120.2 134.011 123.2 136.111 126.2C138.211 129.2 140.211 132.3 141.911 135.6C142.777 137.2 143.511 138.9 144.111 140.7C144.511 141.6 147.511 152.3 147.811 153.2Z" fill="white"/>
<path d="M40.011 75.3C38.6776 74.2333 37.2443 73.3666 35.7109 72.7C34.5109 72.2 32.7109 71.4 31.4109 72.1C30.9109 72.4 30.411 72.9 30.511 73.5C30.511 74.1 31.011 74.5 31.511 74.8C32.211 75.2 33.0109 75.3 33.7109 75.7C34.2443 75.9 34.7777 76.2 35.311 76.6C36.211 77.5 37.0109 78.5 37.4109 79.7C37.5109 80.3 36.611 80.7 36.511 80.1C36.011 78.6 34.9109 77.3 33.4109 76.6C32.1109 76 30.3109 75.8 29.7109 74.2C29.1109 72.8 30.211 71.4 31.511 71C33.111 70.6 34.911 71.3 36.311 71.9C37.8444 72.6333 39.2443 73.5 40.511 74.5C41.011 74.9 40.411 75.7 40.011 75.3Z" fill="white"/>
<path d="M33.9109 23.7C33.9109 18.8 37.8108 14.9 42.6108 14.9H101.911C106.811 14.9 110.711 18.8 110.711 23.7C110.711 28.5 106.811 32.5 101.911 32.5H45.811C45.011 33.5 43.911 34.5 42.511 35.5C39.711 37.5 36.1109 37.6 35.2109 37.6C35.6109 37.6 36.6109 37.2 37.9109 35.1C38.5109 34.2 39.0109 33.1 39.4109 31.9C36.2109 30.6 33.9109 27.4 33.9109 23.7Z" fill="#2E3238"/>
<path d="M49.4109 51.1001L50.2109 59.6001C50.3109 60.0001 49.9109 60.4001 49.4109 60.4001C48.8109 60.4001 48.411 60.0001 48.311 59.6001L47.4109 51.1001C47.4109 50.7001 47.811 50.3 48.311 50.3C48.811 50.3 49.3109 50.7001 49.4109 51.1001Z" fill="#F5F5FA"/>
<path d="M52.6109 54.1001L53.211 59.6001C53.211 60.0001 52.8111 60.4001 52.3111 60.4001C51.7111 60.4001 51.311 60.0001 51.211 59.6001L50.711 54.1001C50.611 53.6001 51.011 53.3 51.511 53.3C52.111 53.3 52.5109 53.6001 52.6109 54.1001Z" fill="#F5F5FA"/>
<path d="M55.711 56L56.1109 59.6C56.1109 60 55.711 60.4 55.211 60.4C54.711 60.4 54.2109 60 54.1109 59.6L53.8111 56C53.7111 55.5 54.1109 55.1 54.6109 55.1C55.2109 55.1 55.611 55.5 55.711 56Z" fill="#F5F5FA"/>
<path d="M59.1108 54.6001L59.7109 59.6001C59.7109 60.0001 59.311 60.4001 58.811 60.4001C58.311 60.4001 57.8109 60.0001 57.7109 59.6001L57.2109 54.6001C57.2109 54.1001 57.6108 53.8 58.1108 53.8C58.6108 53.8 59.1108 54.1001 59.1108 54.6001Z" fill="#F5F5FA"/>
<path d="M62.0109 54.1001L62.6108 59.6001C62.6108 60.0001 62.2109 60.4001 61.7109 60.4001C61.2109 60.4001 60.7109 60.0001 60.7109 59.6001L60.1108 54.1001C60.0108 53.6001 60.4109 53.3 61.0109 53.3C61.5109 53.3 62.0109 53.6001 62.0109 54.1001Z" fill="#F5F5FA"/>
<path d="M65.1108 56L65.511 59.6C65.611 60 65.2108 60.4 64.6108 60.4C64.1108 60.4 63.6108 60 63.6108 59.6L63.2109 56C63.2109 55.5 63.6108 55.1 64.1108 55.1C64.6108 55.1 65.1108 55.5 65.1108 56Z" fill="#F5F5FA"/>
<path d="M68.7109 56.8L69.011 59.6C69.111 60 68.7108 60.4 68.1108 60.4C67.6108 60.4 67.1108 60 67.1108 59.6L66.811 56.8C66.811 56.4 67.1109 56 67.7109 56C68.2109 56 68.7109 56.4 68.7109 56.8Z" fill="#F5F5FA"/>
<path d="M71.4109 54.1001L71.9109 59.6001C72.0109 60.0001 71.611 60.4001 71.011 60.4001C70.511 60.4001 70.011 60.0001 70.011 59.6001L69.4109 54.1001C69.4109 53.6001 69.811 53.3 70.311 53.3C70.811 53.3 71.3109 53.6001 71.4109 54.1001Z" fill="#F5F5FA"/>
<path d="M74.011 51.1001L74.811 59.6001C74.911 60.0001 74.511 60.4001 74.011 60.4001C73.411 60.4001 73.0109 60.0001 72.9109 59.6001L72.011 51.1001C72.011 50.7001 72.4109 50.3 72.9109 50.3C73.5109 50.3 73.911 50.7001 74.011 51.1001Z" fill="#F5F5FA"/>
<path d="M77.811 53.5001L78.4108 59.6001C78.5108 60.0001 78.1108 60.4001 77.6108 60.4001C77.0108 60.4001 76.6109 60.0001 76.5109 59.6001L75.9108 53.5001C75.8108 53.0001 76.211 52.7001 76.811 52.7001C77.311 52.7001 77.811 53.0001 77.811 53.5001Z" fill="#F5F5FA"/>
<path d="M81.011 56.3L81.4109 59.6C81.4109 60 81.011 60.4 80.511 60.4C80.011 60.4 79.5109 60 79.4109 59.6L79.1108 56.3C79.1108 55.8 79.411 55.5 80.011 55.5C80.511 55.5 81.011 55.8 81.011 56.3Z" fill="#F5F5FA"/>
<path d="M83.9109 56.3L84.311 59.6C84.311 60 83.9109 60.4 83.4109 60.4C82.9109 60.4 82.4109 60 82.4109 59.6L82.011 56.3C82.011 55.8 82.4109 55.5 82.9109 55.5C83.4109 55.5 83.9109 55.8 83.9109 56.3Z" fill="#F5F5FA"/>
<path d="M170.211 46.5001C169.611 46.3001 169.011 46.2001 168.411 46.2001C165.911 46.4001 164.011 48.4001 161.811 49.5001C160.678 50.1001 159.478 50.4001 158.211 50.4001C156.911 50.3001 155.711 50.0001 154.411 49.7001C153.211 49.3001 152.011 49.0001 150.711 48.9001C149.611 48.8001 148.511 48.9001 147.411 49.1001C145.211 49.5001 143.111 50.4001 141.111 51.3001C139.011 52.1001 136.811 53.0001 134.611 53.4001C132.111 53.8001 129.711 53.4001 127.411 52.6001C124.911 51.8001 122.611 50.6001 120.211 49.8001C117.811 49.0001 115.411 48.4001 112.911 48.1001C108.111 47.5001 103.111 48.0001 98.7109 50.4001C98.2109 50.7001 97.8108 49.8001 98.4108 49.5001C98.9441 49.2334 99.4776 48.9667 100.011 48.7001C104.611 46.7001 109.611 46.5001 114.511 47.3001C116.911 47.7001 119.411 48.4001 121.711 49.3001C124.211 50.2001 126.611 51.5001 129.111 52.1001C131.511 52.8001 133.911 52.7001 136.211 52.0001C138.411 51.4001 140.511 50.4001 142.711 49.6001C144.811 48.8001 147.011 48.0001 149.211 47.9001C150.411 47.8334 151.578 47.9334 152.711 48.2001C154.011 48.5001 155.311 48.9001 156.611 49.2001C157.811 49.4001 159.111 49.5001 160.311 49.1001C161.511 48.7001 162.611 47.9001 163.611 47.2001C165.611 45.9001 168.111 44.6001 170.511 45.6001C171.111 45.9001 170.711 46.8001 170.211 46.5001Z" fill="#2E3238"/>
</svg>
